# xmcd CD database file
#
# Track frame offsets:
#	225
#	17858
#	35164
#	47209
#	67294
#	89004
#	102892
#	123823
#	135197
#	152904
#	170813
#	187764
#	205000
#	214123
#	227692
#	242141
#
# Disc length: 3508 seconds
#
# Revision: 0
# Processed by: cddbd v1.5.1PL0 Copyright (c) Steve Scherf et al.
# Submitted via: CDex 1.51
#
DISCID=e30db110
DTITLE=STUDIO 'A' BIG BAND - WB JAZZ
DYEAR=2004
DGENRE=Jazz
TTITLE0=MOONDANCE
TTITLE1=SWING LOW SWEET CHARIOT
TTITLE2=NOW ROCK YE RESTED GENTLEMAN
TTITLE3=BLUES IN THE NIGHT
TTITLE4=MIXED BAG
TTITLE5=DAYS OF WINE AND ROSES
TTITLE6=PINK PANTHER REMIX
TTITLE7=BLUE 'N' BOOGIE
TTITLE8=YOU RAISE ME UP
TTITLE9=MALIBU DRIVE
TTITLE10='ROUND MIDNIGHT
TTITLE11=HOOKING THE FLAVORS
TTITLE12=SWEET GEORGIA BROWN
TTITLE13=WHEN THE SAINTS GO MARCHING IN
TTITLE14=JUST A LITTLE CHA CHA
TTITLE15=SAY WHAT
EXTD=YEAR: 2004
EXTT0=
EXTT1=
EXTT2=
EXTT3=
EXTT4=
EXTT5=
EXTT6=
EXTT7=
EXTT8=
EXTT9=
EXTT10=
EXTT11=
EXTT12=
EXTT13=
EXTT14=
EXTT15=
PLAYORDER=
